HIERARCHY
ROOT joint_Root
{
	OFFSET 0.0 0.0 0.0
	CHANNELS 6 Xposition Yposition Zposition Zrotation Xrotation Yrotation 
	JOINT Hips
	{
		OFFSET 4.5925 91.4895 -427.239
		CHANNELS 6 Xposition Yposition Zposition Zrotation Xrotation Yrotation 
		JOINT Spine
		{
			OFFSET 15.7357 0.0 0.0
			CHANNELS 6 Xposition Yposition Zposition Zrotation Xrotation Yrotation 
			JOINT Chest
			{
				OFFSET 8.98455 -0.406207 0.0
				CHANNELS 6 Xposition Yposition Zposition Zrotation Xrotation Yrotation 
				JOINT Neck
				{
					OFFSET 16.3773 0.0 0.0
					CHANNELS 6 Xposition Yposition Zposition Zrotation Xrotation Yrotation 
					JOINT Head
					{
						OFFSET 6.45672 0.0 0.0
						CHANNELS 6 Xposition Yposition Zposition Zrotation Xrotation Yrotation 
						End Site
						{
							OFFSET 0.0 0.0 0.0
						}
					}
				}
				JOINT Shoulder_L
				{
					OFFSET 12.9942 -0.242716 4.98039
					CHANNELS 6 Xposition Yposition Zposition Zrotation Xrotation Yrotation 
					JOINT UpperArm_L
					{
						OFFSET 5.34809 0.0 0.0
						CHANNELS 6 Xposition Yposition Zposition Zrotation Xrotation Yrotation 
						JOINT LowerArm_L
						{
							OFFSET 24.3286 1.87007e-05 0.0
							CHANNELS 6 Xposition Yposition Zposition Zrotation Xrotation Yrotation 
							JOINT Hand_L
							{
								OFFSET 22.2916 0.0 0.0
								CHANNELS 6 Xposition Yposition Zposition Zrotation Xrotation Yrotation 
								End Site
								{
									OFFSET 0.0 0.0 0.0
								}
							}
						}
					}
				}
				JOINT Shoulder_R
				{
					OFFSET 12.9945 -0.242716 -4.98039
					CHANNELS 6 Xposition Yposition Zposition Zrotation Xrotation Yrotation 
					JOINT UpperArm_R
					{
						OFFSET -5.34813 0.0 0.0
						CHANNELS 6 Xposition Yposition Zposition Zrotation Xrotation Yrotation 
						JOINT LowerArm_R
						{
							OFFSET -24.3289 0.000322201 0.0
							CHANNELS 6 Xposition Yposition Zposition Zrotation Xrotation Yrotation 
							JOINT Hand_R
							{
								OFFSET -22.2915 -0.000108084 0.0
								CHANNELS 6 Xposition Yposition Zposition Zrotation Xrotation Yrotation 
								End Site
								{
									OFFSET 0.0 0.0 0.0
								}
							}
						}
					}
				}
			}
		}
		JOINT UpperLeg_L
		{
			OFFSET -2.19248 -6.46944 0.0
			CHANNELS 6 Xposition Yposition Zposition Zrotation Xrotation Yrotation 
			JOINT LowerLeg_L
			{
				OFFSET 39.0811 0.0 -1.23785e-05
				CHANNELS 6 Xposition Yposition Zposition Zrotation Xrotation Yrotation 
				JOINT Foot_L
				{
					OFFSET 40.9854 0.0 -1.26872e-05
					CHANNELS 6 Xposition Yposition Zposition Zrotation Xrotation Yrotation 
					JOINT Toes_L
					{
						OFFSET 11.7543 0.0 0.0
						CHANNELS 6 Xposition Yposition Zposition Zrotation Xrotation Yrotation 
						End Site
						{
							OFFSET 0.0 0.0 0.0
						}
					}
				}
			}
		}
		JOINT UpperLeg_R
		{
			OFFSET -2.19251 6.46944 0.0
			CHANNELS 6 Xposition Yposition Zposition Zrotation Xrotation Yrotation 
			JOINT LowerLeg_R
			{
				OFFSET -39.0811 -0.00228153 -0.0401928
				CHANNELS 6 Xposition Yposition Zposition Zrotation Xrotation Yrotation 
				JOINT Foot_R
				{
					OFFSET -40.9854 0.0 0.0
					CHANNELS 6 Xposition Yposition Zposition Zrotation Xrotation Yrotation 
					JOINT Toes_R
					{
						OFFSET -11.7543 0.0 0.0
						CHANNELS 6 Xposition Yposition Zposition Zrotation Xrotation Yrotation 
						End Site
						{
							OFFSET 0.0 0.0 0.0
						}
					}
				}
			}
		}
	}
}
MOTION
Frames:	4
Frame Time:	0.0333333
0.000000 0.000000 0.000000 0.000000 0.000000 -0.000000 -2.687590 91.664400 1.578590 87.694500 3.084640 1.486500 15.735700 0.000005 -0.000001 87.672900 87.237300 -91.107700 8.984550 -0.406207 -0.000000 -2.233660 0.075162 -6.867520 16.377300 -0.000001 -0.000001 3.667730 -5.688040 6.436470 6.456720 -0.000001 -0.000000 -3.955260 -4.419770 2.890750 12.994200 -0.242716 4.980390 -91.418700 3.361320 -67.100600 5.348090 -0.000007 -0.000001 -61.034400 12.374200 -2.861360 24.328600 0.000019 0.000005 9.742100 18.630000 -28.255400 22.291600 -0.000001 0.000005 15.146900 5.196330 2.811220 12.994500 -0.242716 -4.980390 94.333600 -10.636500 -67.678900 -5.348130 -0.000001 -0.000004 -21.664500 -70.655700 -63.128300 -24.328900 0.000322 -0.000009 -2.032560 -2.305840 -41.389300 -22.291500 -0.000108 -0.000004 24.569800 5.587980 -10.648300 -2.192480 -6.469440 -0.000000 -172.892000 -11.064700 -5.955120 39.081100 -0.000007 -0.000012 -0.136251 0.279488 25.989500 40.985400 -0.000006 -0.000013 -0.479464 9.912320 -68.578100 11.754300 -0.000000 0.000003 -0.000091 -0.000945 -16.613900 -2.192510 6.469440 -0.000001 -179.943000 26.829900 176.724000 -39.081100 -0.002282 -0.040193 0.016704 -0.030125 23.963800 -40.985400 0.000008 0.000006 8.211550 13.266000 -69.907400 -11.754300 -0.000006 -0.000006 -0.003043 -0.041085 -18.244000
0.000000 0.000000 0.000000 0.000000 0.000000 -0.000000 -2.472870 91.672100 1.401650 87.747900 2.477270 1.543560 15.735700 0.000005 -0.000001 87.056200 87.165900 -90.303300 8.984550 -0.406207 -0.000000 -2.097420 -0.011765 -6.493580 16.377300 -0.000001 -0.000001 3.381420 -5.342150 6.020680 6.456720 -0.000001 -0.000000 -3.770680 -4.105590 2.871260 12.994200 -0.242716 4.980390 -91.575700 3.758480 -67.234400 5.348090 -0.000007 -0.000001 -61.121900 13.264600 -3.153850 24.328600 0.000019 0.000005 9.355210 18.573700 -27.348700 22.291600 -0.000001 0.000005 15.198500 5.195690 2.827020 12.994500 -0.242716 -4.980390 93.814300 -9.702930 -68.417900 -5.348130 -0.000001 -0.000004 -18.156400 -67.855700 -56.383300 -24.328900 0.000322 -0.000009 -2.721200 -2.423770 -48.321600 -22.291500 -0.000108 -0.000004 24.208300 5.584600 -10.461000 -2.192480 -6.469440 -0.000000 -173.119000 -11.310800 -5.931880 39.081100 -0.000007 -0.000012 -0.137923 0.282229 26.044600 40.985400 -0.000006 -0.000013 -0.386009 9.559040 -68.568600 11.754300 -0.000000 0.000003 -0.000092 -0.000956 -16.614300 -2.192510 6.469440 -0.000001 179.844000 26.560600 176.647000 -39.081100 -0.002282 -0.040193 0.015886 -0.028278 23.969800 -40.985400 0.000008 0.000006 8.126760 13.624400 -69.910000 -11.754300 -0.000006 -0.000006 -0.002955 -0.040087 -18.203400
0.000000 0.000000 0.000000 0.000000 0.000000 -0.000000 -2.246550 91.697600 1.200290 87.786200 1.846640 1.555980 15.735700 0.000005 -0.000001 86.473700 87.088700 -89.523400 8.984550 -0.406207 -0.000000 -1.949840 -0.099674 -6.100010 16.377300 -0.000001 -0.000001 2.891620 -4.969060 5.575570 6.456720 -0.000001 -0.000000 -3.509710 -3.933410 2.915050 12.994200 -0.242716 4.980390 -91.636600 3.944580 -67.445700 5.348090 -0.000007 -0.000001 -61.605100 14.107200 -3.502360 24.328600 0.000019 0.000005 8.958490 18.704400 -26.177500 22.291600 -0.000001 0.000005 14.962400 5.193280 2.887410 12.994500 -0.242716 -4.980390 93.284800 -8.708960 -69.241700 -5.348130 -0.000001 -0.000004 -14.723000 -64.269100 -49.299300 -24.328900 0.000322 -0.000009 -3.224790 -2.223830 -55.434100 -22.291500 -0.000108 -0.000004 23.532400 5.581840 -10.309300 -2.192480 -6.469440 -0.000000 -173.357000 -11.592800 -5.912200 39.081100 -0.000007 -0.000012 -0.132998 0.272633 26.004500 40.985400 -0.000006 -0.000013 -0.289660 9.193070 -68.507700 11.754300 -0.000000 0.000003 -0.000101 -0.001042 -16.617500 -2.192510 6.469440 -0.000001 179.700000 26.161300 176.477000 -39.081100 -0.002282 -0.040193 0.015729 -0.027939 23.958800 -40.985400 0.000008 0.000006 8.058630 13.909100 -69.788900 -11.754300 -0.000006 -0.000006 -0.002802 -0.038346 -18.132500
0.000000 0.000000 0.000000 0.000000 0.000000 -0.000000 -2.013450 91.729100 0.985061 87.866000 1.200730 1.559850 15.735700 0.000005 -0.000001 85.316400 86.991000 -88.154200 8.984550 -0.406207 -0.000000 -1.768170 -0.255340 -5.678210 16.377300 -0.000001 -0.000001 2.392600 -4.559510 5.132800 6.456720 -0.000001 -0.000000 -3.510380 -3.664480 2.895630 12.994200 -0.242716 4.980390 -91.690600 4.088880 -67.514300 5.348090 -0.000007 -0.000001 -62.238100 15.169800 -3.814120 24.328600 0.000019 0.000005 8.632900 18.810200 -25.214000 22.291600 -0.000001 0.000005 14.663800 5.186690 3.050970 12.994500 -0.242716 -4.980390 92.690400 -7.402180 -69.961800 -5.348130 -0.000001 -0.000004 -12.917800 -59.922300 -43.914900 -24.328900 0.000322 -0.000009 -2.893410 -1.514250 -62.405900 -22.291500 -0.000108 -0.000004 22.600400 5.566330 -9.496880 -2.192480 -6.469440 -0.000000 -173.642000 -11.957600 -5.887320 39.081100 -0.000007 -0.000012 -0.130494 0.268661 25.906800 40.985400 -0.000006 -0.000013 -0.179550 8.862430 -68.402700 11.754300 -0.000000 0.000003 -0.000088 -0.000922 -16.613000 -2.192510 6.469440 -0.000001 179.514000 25.788200 176.276000 -39.081100 -0.002282 -0.040193 0.016129 -0.028823 23.970200 -40.985400 0.000008 0.000006 8.043000 14.227400 -69.662600 -11.754300 -0.000006 -0.000006 -0.002763 -0.037891 -18.114000
